<?xml version="1.0" encoding="utf-8"?>
<!-- Generator: Adobe Illustrator 24.0.1, SVG Export Plug-In . SVG Version: 6.00 Build 0)  -->
<svg version="1.1" id="Layer_1" xmlns="http://www.w3.org/2000/svg" xmlns:xlink="http://www.w3.org/1999/xlink" x="0px" y="0px"
	 viewBox="0 0 1698 519" style="enable-background:new 0 0 1698 519;" xml:space="preserve">
<style type="text/css">
	.st0{fill:#FFFFFF;}
</style>
<g>
	<g id="Group_1" transform="translate(52.12 36.891)">
		<path id="Path_1" class="st0" d="M544.1,469.1c0,1.2,0.9,2.1,2.1,2.1h44.6c1.2,0,2.1-0.9,2.1-2.1V463c0-1.2-1-2.1-2.1-2.1h-35.3
			v-24h29.8c1.2,0,2.1-0.9,2.1-2.1v-6.3c-0.1-1.1-1-2-2.1-2.1h-29.8v-22.8h35.3c1.2,0,2.1-0.9,2.1-2.1v-6.3c0-1.2-1-2.1-2.1-2.1
			h-44.6c-1.1,0-2.1,0.9-2.1,2.1V469.1z M658.1,471.1c0.4,0.7,1.1,1.2,1.9,1.2h1.1c0.8,0,1.5-0.5,1.9-1.2l34.3-75.1
			c0.5-1,0.2-2.2-0.8-2.7c-0.3-0.2-0.7-0.3-1.1-0.2h-7.9c-0.8,0-1.6,0.5-1.9,1.2L661,449.5h-0.7l-24.6-55.2
			c-0.4-0.7-1.1-1.2-1.9-1.2H626c-1.1-0.1-2,0.7-2.1,1.8c0,0.4,0,0.8,0.2,1.1L658.1,471.1z M733.1,469.1c0,1.2,0.9,2.1,2.1,2.1h44.6
			c1.2,0,2.1-0.9,2.1-2.1V463c0-1.2-1-2.1-2.1-2.1h-35.3v-24h29.8c1.2,0,2.1-0.9,2.1-2.1v-6.3c-0.1-1.1-1-2-2.1-2.1h-29.8v-22.8
			h35.3c1.2,0,2.1-0.9,2.1-2.1v-6.3c0-1.2-1-2.1-2.1-2.1h-44.6c-1.2,0-2.1,0.9-2.1,2.1V469.1z M823.4,469.1c0.1,1.1,1,2,2.1,2.1h7
			c1.2,0,2.1-0.9,2.1-2.1v-54.4h0.1l48.4,57.6h2.9c1.1,0,2.1-0.9,2.1-2v-75.1c-0.1-1.1-1-2.1-2.1-2.1h-7c-1.2,0-2.1,1-2.1,2.1V448
			h-0.1l-48.4-56h-2.8c-1.1,0-2.1,0.9-2.1,2L823.4,469.1z M945.2,469.1c0.1,1.1,1,2.1,2.1,2.1h7.4c1.1-0.1,2.1-1,2.1-2.1v-65.5H975
			c1.1,0,2.1-0.9,2.1-2.1v-6.3c0-1.2-1-2.1-2.1-2.1h-48c-1.2,0-2.1,0.9-2.1,2.1v6.3c0,1.2,0.9,2.1,2.1,2.1h18.2V469.1z
			 M1009.4,463.5c6.7,5.7,15.2,8.9,24,8.8c12.5,1.2,23.6-8,24.8-20.5c0-0.2,0-0.4,0-0.6c0-13.6-11.1-19.8-24-25
			c-9.3-3.8-14.2-7.7-14.2-14.1c0-4.1,3.2-10.1,12.6-10.1c5.4,0.7,10.6,2.6,15.1,5.6c1.2,0.8,2.8,0.5,3.7-0.7
			c0.1-0.1,0.2-0.3,0.2-0.4c0.9-1.3,1.9-2.9,2.8-4.2c0.9-1.2,0.6-2.8-0.5-3.7l-0.1-0.1c-6.1-4.2-13.4-6.5-20.8-6.6
			c-11.9-1.5-22.8,7-24.3,18.9c-0.1,0.6-0.1,1.1-0.1,1.7c0,12.9,8.9,18.9,20.3,23.7c11.1,4.6,16.9,8.8,16.9,15.5
			c-0.4,6.2-5.8,10.9-12,10.5c-0.2,0-0.4,0-0.6-0.1c-6.6-0.7-12.8-3.4-17.8-7.7c-1.1-0.9-2.7-0.7-3.5,0.4c-0.1,0.1-0.2,0.3-0.3,0.5
			c-1,1.5-1.9,3.1-2.9,4.6c-0.8,1-0.7,2.5,0.3,3.3C1009.1,463.3,1009.2,463.4,1009.4,463.5"/>
	</g>
</g>
<path class="st0" d="M117.8,195l-29.4-14.7c-14.7-5.5-25.7-12.9-31.3-20.2c-7.4-7.4-11-16.6-11-25.7c0-11,3.7-20.2,11-29.4
	c7.4-7.4,16.6-11,27.6-11c7.4,0,14.7,1.8,22.1,5.5s14.7,9.2,20.2,16.6c3.7,5.5,7.4,11,9.2,16.6c1.8,5.5,3.7,12.9,7.4,22.1h5.5
	l-1.8-64.4h-5.5c-3.7,5.5-7.4,9.2-11,9.2c-1.8,0-5.5,0-7.4-1.8l-9.2-5.5c-9.2-3.7-18.4-3.7-27.6-3.7c-20.2,0-38.6,5.5-51.5,20.2
	c-11,12.9-16.6,27.6-16.6,46c0,16.6,5.5,31.3,16.6,42.3c7.4,9.2,23.9,20.2,47.8,33.1c12.9,7.4,23.9,12.9,29.4,16.6
	c5.5,3.7,11,9.2,14.7,12.9c7.4,9.2,11,20.2,11,31.3c0,14.7-5.5,25.7-14.7,34.9c-9.2,7.4-18.4,11-31.3,11c-20.2,0-36.8-11-51.5-33.1
	c-7.4-11-14.7-25.7-20.2-46h-3.7v82.8h3.7c3.7-5.5,9.2-9.2,14.7-9.2c1.8,0,5.5,0,7.4,0c1.8,0,7.4,1.8,14.7,5.5
	c12.9,5.5,25.7,7.4,38.6,7.4c22.1,0,42.3-7.4,57-23.9c12.9-12.9,18.4-29.4,18.4-51.5c0-16.6-3.7-31.3-12.9-44.1
	C149.1,213.4,134.4,204.2,117.8,195z"/>
<path class="st0" d="M408.4,305.4c-5.5,5.5-12.9,11-22.1,14.7s-18.4,5.5-29.4,5.5c-12.9,0-27.6-3.7-38.6-9.2
	c-12.9-5.5-22.1-14.7-31.3-25.7c-7.4-11-14.7-23.9-20.2-40.5s-7.4-33.1-7.4-49.7c0-3.7,0-11,1.8-20.2h165.5
	c0-23.9-7.4-44.1-20.2-60.7c-9.2-11-20.2-18.4-33.1-23.9s-27.6-9.2-42.3-9.2c-27.6,0-53.3,9.2-75.4,27.6c-29.4,23.9-46,58.9-46,103
	c0,31.3,7.4,58.9,23.9,80.9c11,16.6,25.7,27.6,42.3,34.9c16.6,7.4,36.8,11,58.9,11c27.6,0,47.8-5.5,64.4-16.6
	c16.6-11,25.7-29.4,31.3-51.5L425,274C421.3,288.8,415.8,299.9,408.4,305.4z M283.4,116c12.9-14.7,27.6-22.1,42.3-22.1
	c9.2,0,18.4,3.7,27.6,9.2s14.7,12.9,20.2,22.1c5.5,11,9.2,25.7,11,44.1H263.1C265,147.2,272.3,130.7,283.4,116z"/>
<path class="st0" d="M700.9,97.6V92h-77.2v5.5c7.4,1.8,12.9,3.7,16.6,5.5c5.5,3.7,9.2,11,9.2,22.1c0,9.2-3.7,22.1-11,40.5l-46,125.1
	l-46-119.5c-5.5-12.9-9.2-23.9-11-31.3c-1.8-7.4-3.7-12.9-3.7-18.4c0-9.2,3.7-14.7,9.2-18.4c3.7-1.8,9.2-3.7,16.6-5.5V92H447.1v5.5
	c5.5,1.8,11,1.8,14.7,3.7c3.7,1.8,5.5,3.7,9.2,7.4c5.5,5.5,12.9,22.1,23.9,49.7l71.7,180.2h14.7l64.4-171c11-27.6,20.2-46,27.6-55.2
	C682.5,106.8,691.7,101.2,700.9,97.6z"/>
<path class="st0" d="M932.6,276l-5.5-1.8c-5.5,14.7-11,25.7-18.4,33.1c-5.5,5.5-12.9,11-22.1,14.7c-9.2,3.7-18.4,5.5-29.4,5.5
	c-12.9,0-27.6-3.7-38.6-9.2c-12.9-5.5-22.1-14.7-31.3-25.7s-14.7-23.9-20.2-40.5s-7.4-33.1-7.4-49.7c0-3.7,0-11,1.8-20.2H927
	c0-23.9-7.4-44.1-20.2-60.7c-9.2-11-20.2-18.4-33.1-23.9c-12.9-5.5-27.6-9.2-42.3-9.2c-27.6,0-53.3,9.2-75.4,27.6
	c-29.4,23.9-46,58.9-46,103c0,31.3,7.4,58.9,23.9,80.9c11,16.6,25.7,27.6,42.3,34.9c16.6,7.4,36.8,11,58.9,11
	c27.6,0,47.8-5.5,64.4-16.6C917.9,314.6,927.1,298,932.6,276z M783.6,116c12.9-14.7,27.6-22.1,44.1-22.1c9.2,0,18.4,3.7,27.6,9.2
	c9.2,5.5,14.7,12.9,20.2,22.1c5.5,11,9.2,25.7,11,44.1H765.2C765.2,147.2,772.6,130.7,783.6,116z"/>
<path class="st0" d="M1212.2,305.4c-1.8-5.5-1.8-16.6-1.8-29.4V154.6c0-20.2-7.4-36.8-22.1-49.7c-14.7-11-34.9-16.6-58.9-16.6
	c-33.1,0-60.7,12.9-82.8,36.8v-5.5c0-9.2-1.8-20.2-3.7-31.3l-77.2,11v5.5c9.2,0,14.7,1.8,20.2,3.7c3.7,1.8,9.2,5.5,11,11
	c3.7,5.5,5.5,11,5.5,20.2c1.8,7.4,1.8,22.1,1.8,42.3v71.7c0,16.6,0,29.4-1.8,38.6c0,9.2-1.8,16.6-3.7,20.2c-3.7,7.4-7.4,11-11,14.7
	c-5.5,3.7-12.9,5.5-23.9,7.4v5.5H1087V333c-14.7-1.8-23.9-7.4-29.4-11c-3.7-3.7-7.4-9.2-9.2-14.7c-1.8-5.5-1.8-16.6-1.8-29.4v-22.1
	v-57c0-22.1,0-38.6,1.8-47.8s5.5-18.4,11-25.7c5.5-7.4,12.9-12.9,22.1-16.6s18.4-5.5,29.4-5.5c9.2,0,18.4,1.8,27.6,5.5
	c7.4,3.7,14.7,9.2,18.4,16.6c3.7,5.5,7.4,14.7,7.4,23.9c1.8,9.2,1.8,25.7,1.8,46v60.7c0,16.6,0,29.4-1.8,38.6
	c0,9.2-1.8,16.6-3.7,20.2c-3.7,7.4-7.4,11-11,14.7c-5.5,3.7-12.9,5.5-23.9,7.4v5.5h125.1V333c-14.7-1.8-23.9-7.4-29.4-11
	C1215.8,316.4,1214,312.7,1212.2,305.4z"/>
<path class="st0" d="M1401.6,325.6c-5.5,3.7-12.9,5.5-20.2,5.5s-12.9-1.8-18.4-3.7s-11-7.4-14.7-11c-7.4-9.2-11-23.9-11-44.1V103.1
	h71.7V92h-71.7V16.6h-11l-3.7,9.2c-3.7,11-7.4,20.2-11,27.6c-3.7,7.4-7.4,14.7-14.7,22.1c-11,11-22.1,20.2-33.1,23.9v5.5h29.4v176.6
	c0,16.6,0,29.4,1.8,34.9c1.8,7.4,5.5,12.9,11,16.6c11,9.2,25.7,12.9,47.8,12.9c16.6,0,31.3-3.7,42.3-9.2s20.2-14.7,25.7-25.7
	l-3.7-3.7C1412.6,316.4,1407.1,321.9,1401.6,325.6z"/>
<path class="st0" d="M1675.6,310.9c-3.7,5.5-9.2,11-11,12.9c-3.7,1.8-7.4,3.7-12.9,3.7c-12.9,0-20.2-7.4-23.9-20.2
	c-1.8-7.4-1.8-18.4-1.8-36.8V161.9c0-12.9,0-23.9-1.8-29.4c-3.7-11-11-20.2-22.1-27.6c-9.2-5.5-18.4-9.2-31.3-11
	c-12.9-3.7-23.9-5.5-36.8-5.5c-11,0-20.2,1.8-31.3,3.7s-20.2,5.5-27.6,9.2c-12.9,7.4-20.2,14.7-20.2,25.7c0,7.4,1.8,12.9,7.4,16.6
	c3.7,3.7,9.2,7.4,16.6,7.4c9.2,0,16.6-3.7,20.2-12.9l7.4-16.6c3.7-7.4,7.4-12.9,12.9-16.6c1.8-9.2,9.2-11,16.6-11
	c5.5,0,12.9,1.8,18.4,3.7c5.5,3.7,11,7.4,14.7,11c7.4,11,12.9,27.6,12.9,49.7c0,11-1.8,18.4-3.7,25.7c-1.8,5.5-5.5,11-12.9,16.6
	c-5.5,3.7-11,7.4-20.2,11c-7.4,3.7-20.2,7.4-36.8,11c-14.7,3.7-23.9,7.4-31.3,11c-7.4,3.7-14.7,9.2-20.2,14.7
	c-9.2,11-14.7,23.9-14.7,40.5c0,16.6,5.5,31.3,18.4,42.3s29.4,14.7,49.7,14.7c16.6,0,31.3-3.7,42.3-11c5.5-3.7,16.6-11,29.4-22.1
	c5.5,11,12.9,18.4,18.4,23.9c9.2,7.4,20.2,11,33.1,11c23.9,0,40.5-11,46-31.3L1675.6,310.9z M1581.8,244.7c0,23.9-3.7,44.1-9.2,57
	c-3.7,9.2-11,18.4-18.4,23.9s-16.6,7.4-25.7,7.4c-11,0-18.4-3.7-25.7-12.9s-11-18.4-11-31.3c0-14.7,3.7-27.6,12.9-38.6
	c3.7-5.5,9.2-9.2,14.7-14.7c5.5-3.7,14.7-9.2,27.6-16.6c12.9-7.4,23.9-14.7,33.1-22.1v47.8L1581.8,244.7L1581.8,244.7z"/>
</svg>
