<?xml version="1.0" encoding="utf-8"?>
<!-- Generator: Adobe Illustrator 24.0.1, SVG Export Plug-In . SVG Version: 6.00 Build 0)  -->
<svg version="1.1" id="devdark" xmlns="http://www.w3.org/2000/svg" xmlns:xlink="http://www.w3.org/1999/xlink" x="0px" y="0px"
	 viewBox="0 0 95 30" style="enable-background:new 0 0 95 30;" xml:space="preserve">
<style type="text/css">
	.st0{fill:#1A1A1A;}
</style>
<g>
	<path class="st0" d="M7.3,11.5l-1.6-0.8C4.9,10.4,4.3,10,4,9.6C3.6,9.2,3.4,8.7,3.4,8.2c0-0.6,0.2-1.1,0.6-1.6C4.4,6.2,4.9,6,5.5,6
		c0.4,0,0.8,0.1,1.2,0.3c0.4,0.2,0.8,0.5,1.1,0.9C8,7.5,8.2,7.8,8.3,8.1c0.1,0.3,0.2,0.7,0.4,1.2H9L8.9,5.8H8.6
		C8.4,6.1,8.2,6.3,8,6.3c-0.1,0-0.3,0-0.4-0.1L7.1,5.9c-0.5-0.2-1-0.2-1.5-0.2C4.5,5.7,3.5,6,2.8,6.8C2.2,7.5,1.9,8.3,1.9,9.3
		c0,0.9,0.3,1.7,0.9,2.3c0.4,0.5,1.3,1.1,2.6,1.8c0.7,0.4,1.3,0.7,1.6,0.9c0.3,0.2,0.6,0.5,0.8,0.7c0.4,0.5,0.6,1.1,0.6,1.7
		c0,0.8-0.3,1.4-0.8,1.9c-0.5,0.4-1,0.6-1.7,0.6c-1.1,0-2-0.6-2.8-1.8C2.7,16.8,2.3,16,2,14.9H1.8v4.5H2c0.2-0.3,0.5-0.5,0.8-0.5
		c0.1,0,0.3,0,0.4,0c0.1,0,0.4,0.1,0.8,0.3c0.7,0.3,1.4,0.4,2.1,0.4c1.2,0,2.3-0.4,3.1-1.3c0.7-0.7,1-1.6,1-2.8
		c0-0.9-0.2-1.7-0.7-2.4C9,12.5,8.2,12,7.3,11.5z"/>
	<path class="st0" d="M23.1,17.5c-0.3,0.3-0.7,0.6-1.2,0.8s-1,0.3-1.6,0.3c-0.7,0-1.5-0.2-2.1-0.5c-0.7-0.3-1.2-0.8-1.7-1.4
		c-0.4-0.6-0.8-1.3-1.1-2.2S15,12.7,15,11.8c0-0.2,0-0.6,0.1-1.1h9c0-1.3-0.4-2.4-1.1-3.3c-0.5-0.6-1.1-1-1.8-1.3
		c-0.7-0.3-1.5-0.5-2.3-0.5c-1.5,0-2.9,0.5-4.1,1.5c-1.6,1.3-2.5,3.2-2.5,5.6c0,1.7,0.4,3.2,1.3,4.4c0.6,0.9,1.4,1.5,2.3,1.9
		c0.9,0.4,2,0.6,3.2,0.6c1.5,0,2.6-0.3,3.5-0.9s1.4-1.6,1.7-2.8L24,15.8C23.8,16.6,23.5,17.2,23.1,17.5z M16.3,7.2
		C17,6.4,17.8,6,18.6,6c0.5,0,1,0.2,1.5,0.5s0.8,0.7,1.1,1.2c0.3,0.6,0.5,1.4,0.6,2.4h-6.6C15.3,8.9,15.7,8,16.3,7.2z"/>
	<path class="st0" d="M39,6.2V5.9h-4.2v0.3c0.4,0.1,0.7,0.2,0.9,0.3c0.3,0.2,0.5,0.6,0.5,1.2c0,0.5-0.2,1.2-0.6,2.2l-2.5,6.8
		l-2.5-6.5c-0.3-0.7-0.5-1.3-0.6-1.7s-0.2-0.7-0.2-1c0-0.5,0.2-0.8,0.5-1c0.2-0.1,0.5-0.2,0.9-0.3V5.9h-6v0.3
		c0.3,0.1,0.6,0.1,0.8,0.2c0.2,0.1,0.3,0.2,0.5,0.4c0.3,0.3,0.7,1.2,1.3,2.7l3.9,9.8h0.8L36,10c0.6-1.5,1.1-2.5,1.5-3
		C38,6.7,38.5,6.4,39,6.2z"/>
	<path class="st0" d="M51.6,15.9l-0.3-0.1c-0.3,0.8-0.6,1.4-1,1.8c-0.3,0.3-0.7,0.6-1.2,0.8s-1,0.3-1.6,0.3c-0.7,0-1.5-0.2-2.1-0.5
		c-0.7-0.3-1.2-0.8-1.7-1.4s-0.8-1.3-1.1-2.2s-0.4-1.8-0.4-2.7c0-0.2,0-0.6,0.1-1.1h9c0-1.3-0.4-2.4-1.1-3.3c-0.5-0.6-1.1-1-1.8-1.3
		s-1.5-0.5-2.3-0.5c-1.5,0-2.9,0.5-4.1,1.5c-1.6,1.3-2.5,3.2-2.5,5.6c0,1.7,0.4,3.2,1.3,4.4c0.6,0.9,1.4,1.5,2.3,1.9s2,0.6,3.2,0.6
		c1.5,0,2.6-0.3,3.5-0.9C50.8,18,51.3,17.1,51.6,15.9z M43.5,7.2C44.2,6.4,45,6,45.9,6c0.5,0,1,0.2,1.5,0.5s0.8,0.7,1.1,1.2
		c0.3,0.6,0.5,1.4,0.6,2.4h-6.6C42.5,8.9,42.9,8,43.5,7.2z"/>
	<path class="st0" d="M66.8,17.5c-0.1-0.3-0.1-0.9-0.1-1.6V9.3c0-1.1-0.4-2-1.2-2.7c-0.8-0.6-1.9-0.9-3.2-0.9c-1.8,0-3.3,0.7-4.5,2
		V7.4c0-0.5-0.1-1.1-0.2-1.7l-4.2,0.6v0.3c0.5,0,0.8,0.1,1.1,0.2c0.2,0.1,0.5,0.3,0.6,0.6c0.2,0.3,0.3,0.6,0.3,1.1
		c0.1,0.4,0.1,1.2,0.1,2.3v3.9c0,0.9,0,1.6-0.1,2.1c0,0.5-0.1,0.9-0.2,1.1c-0.2,0.4-0.4,0.6-0.6,0.8c-0.3,0.2-0.7,0.3-1.3,0.4v0.3
		H60V19c-0.8-0.1-1.3-0.4-1.6-0.6c-0.2-0.2-0.4-0.5-0.5-0.8s-0.1-0.9-0.1-1.6v-1.2v-3.1c0-1.2,0-2.1,0.1-2.6s0.3-1,0.6-1.4
		c0.3-0.4,0.7-0.7,1.2-0.9c0.5-0.2,1-0.3,1.6-0.3c0.5,0,1,0.1,1.5,0.3c0.4,0.2,0.8,0.5,1,0.9C64,8,64.2,8.5,64.2,9
		c0.1,0.5,0.1,1.4,0.1,2.5v3.3c0,0.9,0,1.6-0.1,2.1c0,0.5-0.1,0.9-0.2,1.1c-0.2,0.4-0.4,0.6-0.6,0.8c-0.3,0.2-0.7,0.3-1.3,0.4v0.3
		h6.8V19c-0.8-0.1-1.3-0.4-1.6-0.6C67,18.1,66.9,17.9,66.8,17.5z"/>
	<path class="st0" d="M77.1,18.6c-0.3,0.2-0.7,0.3-1.1,0.3s-0.7-0.1-1-0.2s-0.6-0.4-0.8-0.6c-0.4-0.5-0.6-1.3-0.6-2.4V6.5h3.9V5.9
		h-3.9V1.8H73l-0.2,0.5c-0.2,0.6-0.4,1.1-0.6,1.5C72,4.2,71.8,4.6,71.4,5c-0.6,0.6-1.2,1.1-1.8,1.3v0.3h1.6v9.6c0,0.9,0,1.6,0.1,1.9
		c0.1,0.4,0.3,0.7,0.6,0.9c0.6,0.5,1.4,0.7,2.6,0.7c0.9,0,1.7-0.2,2.3-0.5c0.6-0.3,1.1-0.8,1.4-1.4L78,17.6
		C77.7,18.1,77.4,18.4,77.1,18.6z"/>
	<path class="st0" d="M92,17.8c-0.2,0.3-0.5,0.6-0.6,0.7c-0.2,0.1-0.4,0.2-0.7,0.2c-0.7,0-1.1-0.4-1.3-1.1c-0.1-0.4-0.1-1-0.1-2V9.7
		c0-0.7,0-1.3-0.1-1.6C89,7.5,88.6,7,88,6.6c-0.5-0.3-1-0.5-1.7-0.6c-0.7-0.2-1.3-0.3-2-0.3c-0.6,0-1.1,0.1-1.7,0.2
		s-1.1,0.3-1.5,0.5C80.4,6.8,80,7.2,80,7.8c0,0.4,0.1,0.7,0.4,0.9c0.2,0.2,0.5,0.4,0.9,0.4c0.5,0,0.9-0.2,1.1-0.7l0.4-0.9
		c0.2-0.4,0.4-0.7,0.7-0.9C83.6,6.1,84,6,84.4,6c0.3,0,0.7,0.1,1,0.2c0.3,0.2,0.6,0.4,0.8,0.6c0.4,0.6,0.7,1.5,0.7,2.7
		c0,0.6-0.1,1-0.2,1.4c-0.1,0.3-0.3,0.6-0.7,0.9c-0.3,0.2-0.6,0.4-1.1,0.6c-0.4,0.2-1.1,0.4-2,0.6c-0.8,0.2-1.3,0.4-1.7,0.6
		c-0.4,0.2-0.8,0.5-1.1,0.8c-0.5,0.6-0.8,1.3-0.8,2.2s0.3,1.7,1,2.3c0.7,0.6,1.6,0.8,2.7,0.8c0.9,0,1.7-0.2,2.3-0.6
		c0.3-0.2,0.9-0.6,1.6-1.2c0.3,0.6,0.7,1,1,1.3c0.5,0.4,1.1,0.6,1.8,0.6c1.3,0,2.2-0.6,2.5-1.7L92,17.8z M86.9,14.2
		c0,1.3-0.2,2.4-0.5,3.1c-0.2,0.5-0.6,1-1,1.3C85,18.9,84.5,19,84,19c-0.6,0-1-0.2-1.4-0.7s-0.6-1-0.6-1.7c0-0.8,0.2-1.5,0.7-2.1
		c0.2-0.3,0.5-0.5,0.8-0.8c0.3-0.2,0.8-0.5,1.5-0.9s1.3-0.8,1.8-1.2L86.9,14.2L86.9,14.2z"/>
</g>
<g>
	<path d="M2.5,24.7h1.6v0.7H2.5v1.1h1.8v0.7H1.8v-4.1h2.5v0.7H2.5V24.7z"/>
	<path d="M8.1,27.3l-1.8-4.2h0.8l1.1,2.6l1.1-2.6H10L8.1,27.3z"/>
	<path d="M12.9,24.7h1.6v0.7h-1.6v1.1h1.8v0.7h-2.5v-4.1h2.5v0.7h-1.8V24.7z"/>
	<path d="M17.7,23.1l2,2.8v-2.8h0.7v4.1h-0.6l-2-2.8v2.8h-0.7v-4.1H17.7z"/>
	<path d="M23.9,23.7h-1.1v-0.7h3v0.7h-1.1v3.4h-0.7V23.7z"/>
	<path d="M29.3,25.4c-0.6-0.2-1.3-0.5-1.3-1.3c0-0.6,0.5-1.2,1.3-1.2c0.9,0,1.3,0.6,1.3,0.6l-0.5,0.5c0,0-0.3-0.5-0.8-0.5
		c-0.4,0-0.6,0.2-0.6,0.5c0,0.4,0.3,0.5,0.9,0.7c0.6,0.2,1.1,0.5,1.1,1.3s-0.7,1.1-1.4,1.1c-1,0-1.5-0.8-1.5-0.8l0.5-0.4
		c0,0,0.4,0.6,1,0.6c0.4,0,0.7-0.1,0.7-0.5C30,25.7,29.7,25.6,29.3,25.4z"/>
</g>
</svg>
